TITLE ""
FILE "P1Q_t_1159-1167.mp3" MP3
  TRACK 01 AUDIO
    TITLE "P1Q_t_1159-1167_01"
    INDEX 01 00:00:00
  TRACK 02 AUDIO
    TITLE "P1Q_t_1159-1167_02"
    INDEX 01 00:01:29
  TRACK 03 AUDIO
    TITLE "P1Q_t_1159-1167_03"
    INDEX 01 00:01:53
  TRACK 04 AUDIO
    TITLE "P1Q_t_1159-1167_04"
    INDEX 01 00:04:06
  TRACK 05 AUDIO
    TITLE "P1Q_t_1159-1167_05"
    INDEX 01 00:04:26
  TRACK 06 AUDIO
    TITLE "P1Q_t_1159-1167_06"
    INDEX 01 00:09:31
  TRACK 07 AUDIO
    TITLE "P1Q_t_1159-1167_07"
    INDEX 01 00:10:03
  TRACK 08 AUDIO
    TITLE "P1Q_t_1159-1167_08"
    INDEX 01 00:11:39
  TRACK 09 AUDIO
    TITLE "P1Q_t_1159-1167_09"
    INDEX 01 00:11:59
  TRACK 10 AUDIO
    TITLE "P1Q_t_1159-1167_10"
    INDEX 01 00:16:07
  TRACK 11 AUDIO
    TITLE "P1Q_t_1159-1167_11"
    INDEX 01 00:16:27
  TRACK 12 AUDIO
    TITLE "P1Q_t_1159-1167_12"
    INDEX 01 00:21:03
  TRACK 13 AUDIO
    TITLE "P1Q_t_1159-1167_13"
    INDEX 01 00:21:50
  TRACK 14 AUDIO
    TITLE "P1Q_t_1159-1167_14"
    INDEX 01 00:22:69
  TRACK 15 AUDIO
    TITLE "P1Q_t_1159-1167_15"
    INDEX 01 00:23:13
  TRACK 16 AUDIO
    TITLE "P1Q_t_1159-1167_16"
    INDEX 01 00:25:61
  TRACK 17 AUDIO
    TITLE "P1Q_t_1159-1167_17"
    INDEX 01 00:26:06
  TRACK 18 AUDIO
    TITLE "P1Q_t_1159-1167_18"
    INDEX 01 00:30:00
  TRACK 19 AUDIO
    TITLE "P1Q_t_1159-1167_19"
    INDEX 01 00:30:45
  TRACK 20 AUDIO
    TITLE "P1Q_t_1159-1167_20"
    INDEX 01 00:31:52
  TRACK 21 AUDIO
    TITLE "P1Q_t_1159-1167_21"
    INDEX 01 00:31:72
  TRACK 22 AUDIO
    TITLE "P1Q_t_1159-1167_22"
    INDEX 01 00:35:24
  TRACK 23 AUDIO
    TITLE "P1Q_t_1159-1167_23"
    INDEX 01 00:35:46
  TRACK 24 AUDIO
    TITLE "P1Q_t_1159-1167_24"
    INDEX 01 00:39:48
  TRACK 25 AUDIO
    TITLE "P1Q_t_1159-1167_25"
    INDEX 01 00:40:18
  TRACK 26 AUDIO
    TITLE "P1Q_t_1159-1167_26"
    INDEX 01 00:41:56
  TRACK 27 AUDIO
    TITLE "P1Q_t_1159-1167_27"
    INDEX 01 00:42:03
  TRACK 28 AUDIO
    TITLE "P1Q_t_1159-1167_28"
    INDEX 01 00:43:53
  TRACK 29 AUDIO
    TITLE "P1Q_t_1159-1167_29"
    INDEX 01 00:43:73
  TRACK 30 AUDIO
    TITLE "P1Q_t_1159-1167_30"
    INDEX 01 00:48:52
  TRACK 31 AUDIO
    TITLE "P1Q_t_1159-1167_31"
    INDEX 01 00:49:24
  TRACK 32 AUDIO
    TITLE "P1Q_t_1159-1167_32"
    INDEX 01 00:50:47
  TRACK 33 AUDIO
    TITLE "P1Q_t_1159-1167_33"
    INDEX 01 00:51:17
  TRACK 34 AUDIO
    TITLE "P1Q_t_1159-1167_34"
    INDEX 01 00:52:42
  TRACK 35 AUDIO
    TITLE "P1Q_t_1159-1167_35"
    INDEX 01 00:52:64
  TRACK 36 AUDIO
    TITLE "P1Q_t_1159-1167_36"
    INDEX 01 00:54:28
  TRACK 37 AUDIO
    TITLE "P1Q_t_1159-1167_37"
    INDEX 01 00:54:45
  TRACK 38 AUDIO
    TITLE "P1Q_t_1159-1167_38"
    INDEX 01 00:59:29
  TRACK 39 AUDIO
    TITLE "P1Q_t_1159-1167_39"
    INDEX 01 00:59:74
  TRACK 40 AUDIO
    TITLE "P1Q_t_1159-1167_40"
    INDEX 01 01:01:18
  TRACK 41 AUDIO
    TITLE "P1Q_t_1159-1167_41"
    INDEX 01 01:01:39
  TRACK 42 AUDIO
    TITLE "P1Q_t_1159-1167_42"
    INDEX 01 01:04:24
  TRACK 43 AUDIO
    TITLE "P1Q_t_1159-1167_43"
    INDEX 01 01:04:44
  TRACK 44 AUDIO
    TITLE "P1Q_t_1159-1167_44"
    INDEX 01 01:09:11
  TRACK 45 AUDIO
    TITLE "P1Q_t_1159-1167_45"
    INDEX 01 01:09:58
  TRACK 46 AUDIO
    TITLE "P1Q_t_1159-1167_46"
    INDEX 01 01:11:12
  TRACK 47 AUDIO
    TITLE "P1Q_t_1159-1167_47"
    INDEX 01 01:11:36
  TRACK 48 AUDIO
    TITLE "P1Q_t_1159-1167_48"
    INDEX 01 01:12:57
  TRACK 49 AUDIO
    TITLE "P1Q_t_1159-1167_49"
    INDEX 01 01:13:01
  TRACK 50 AUDIO
    TITLE "P1Q_t_1159-1167_50"
    INDEX 01 01:16:17
  TRACK 51 AUDIO
    TITLE "P1Q_t_1159-1167_51"
    INDEX 01 01:16:62
  TRACK 52 AUDIO
    TITLE "P1Q_t_1159-1167_52"
    INDEX 01 01:18:03
  TRACK 53 AUDIO
    TITLE "P1Q_t_1159-1167_53"
    INDEX 01 01:18:22
  TRACK 54 AUDIO
    TITLE "P1Q_t_1159-1167_54"
    INDEX 01 01:20:64
  TRACK 55 AUDIO
    TITLE "P1Q_t_1159-1167_55"
    INDEX 01 01:21:07
  TRACK 56 AUDIO
    TITLE "P1Q_t_1159-1167_56"
    INDEX 01 01:25:48
